<?xml version="1.0" encoding="UTF-8"?>
<svg width="15px" height="13px" viewBox="0 0 15 13" version="1.1" xmlns="http://www.w3.org/2000/svg" xmlns:xlink="http://www.w3.org/1999/xlink">
    <title>Organization / File / folder / 24</title>
    <g id="White" stroke="none" stroke-width="1" fill="none" fill-rule="evenodd">
        <g id="White-Home" transform="translate(-1320.000000, -448.000000)" fill="#121212" stroke="#121212" stroke-width="0.2">
            <g id="Group-13-Copy-2" transform="translate(85.000000, 441.000000)">
                <g id="Group" transform="translate(862.000000, 0.000000)">
                    <g id="Group-15" transform="translate(367.000000, 0.000000)">
                        <g id="Organization-/-File-/-folder-/-24" transform="translate(7.875000, 8.749999)">
                            <path d="M4.011875,0.875000549 L5.508125,2.36687555 L5.761875,2.62500055 L11.375,2.62500055 L11.375,9.62500055 L0.875,9.62500055 L0.875,0.875000549 L4.011875,0.875000549 M4.011875,2.74276654e-07 L0.875,2.74276654e-07 C0.391750844,2.74276654e-07 0,0.391751393 0,0.875000549 L0,9.62500055 C0,10.1082497 0.391750844,10.5000003 0.875,10.5000003 L11.375,10.5000003 C11.8582492,10.5000003 12.25,10.1082497 12.25,9.62500055 L12.25,2.62500055 C12.25,2.14175139 11.8582492,1.75000055 11.375,1.75000055 L6.125,1.75000055 L4.633125,0.258125549 C4.46871408,0.0927333128 4.24508201,-0.000184240174 4.011875,2.74276654e-07 Z" id="Fill"></path>
                        </g>
                    </g>
                </g>
            </g>
        </g>
    </g>
</svg>